# xmcd
#
# Track frame offsets:
#	150
#	19718
#	38408
#	63904
#	89590
#	109469
#	133263
#	164676
#	189530
#	212364
#	239929
#	259313
#	280295
#
# Disc length: 3983 seconds
#
# Revision: 0
# Processed by: cddbd v1.5.2PL0 Copyright (c) Steve Scherf et al.
# Submitted via: audiograbber 1.83.01
#
DISCID=c60f8d0d
DTITLE=Gregorian - The Dark Side Of The Chant
DYEAR=2010
DGENRE=New Age
TTITLE0=01 - O Fortuna
TTITLE1=02 - Stripped
TTITLE2=03 - All I Need
TTITLE3=04 - Hell's Bells
TTITLE4=05 - Born To Feel Alive
TTITLE5=06 - Morning Dew
TTITLE6=07 - My Heart Is Burning
TTITLE7=08 - Bring Me To Life
TTITLE8=09 - Dark Side
TTITLE9=10 - Frozen
TTITLE10=11 - Black Wings
TTITLE11=12 - Lucifer
TTITLE12=13 - Dark Angel
EXTD=
EXTT0=
EXTT1=
EXTT2=
EXTT3=
EXTT4=
EXTT5=
EXTT6=
EXTT7=
EXTT8=
EXTT9=
EXTT10=
EXTT11=
EXTT12=
PLAYORDER=
